<svg viewBox="0 0 271 56" version="1.1" xmlns="http://www.w3.org/2000/svg">
    <g id="Page-1" stroke="none" stroke-width="0" fill="none" fill-rule="evenodd">
        <g id="Community-Hover-Header" transform="translate(-199.000000, -17.000000)" fill="#2A2A2A" fill-rule="nonzero">
            <g id="Layer_1" transform="translate(199.000000, 17.000000)">
                <g id="Layer_2-2">
                    <g id="Layer_1-2">
                        <g id="Horizontal">
                            <path d="M38.73,7.47 L37.73,7.47 C27.92,7.47 20.52,1.11 20.44,1.04 L20.32,0.93 L19.82,0.49 L19.32,0.93 L19.19,1.04 C19.12,1.1 11.71,7.47 1.9,7.47 L0.9,7.47 L0.9,33.63 C1,49 19.68,55.44 19.86,55.5 C20.04,55.56 38.73,49 38.73,33.63 L38.73,7.47 Z M36.83,33.62 C36.83,46.62 22.14,52.62 19.83,53.44 C17.56,52.6 2.83,46.63 2.83,33.62 L2.83,9.3 C9.00254909,8.94732351 14.9260916,6.74515945 19.83,2.98 C24.734211,6.74461241 30.6575791,8.94671161 36.83,9.3 L36.83,33.62 Z" id="Shape"></path>
                            <path d="M3.87,10.36 L3.87,33.31 C3.87,45.58 17.73,51.21 19.87,52.01 C22.01,51.21 35.87,45.58 35.87,33.31 L35.87,10.36 C30.0561384,10.0074814 24.4820998,7.91721691 19.87,4.36 C15.2572952,7.91612972 9.68360261,10.0062644 3.87,10.36 Z M24.07,36.61 L21.14,36.61 C21.14,36.93 21.14,40.12 21.14,40.67 C21.2184091,40.8100912 21.3123334,40.9409142 21.42,41.06 C21.5589415,41.2206652 21.7093348,41.3710585 21.87,41.51 C21.87,41.51 21.12,42.61 20.4,42.16 C20.4,42.16 21.31,42.7 19.88,45.35 C18.46,42.7 19.36,42.16 19.36,42.16 C18.64,42.62 17.89,41.51 17.89,41.51 C18.0506652,41.3710585 18.2010585,41.2206652 18.34,41.06 C18.4476666,40.9409142 18.5415909,40.8100912 18.62,40.67 C18.62,40.12 18.62,36.93 18.62,36.61 L15.69,36.61 C15.1573367,36.6048925 14.7128992,36.2017296 14.6560617,35.6720828 C14.5992242,35.1424359 14.9479985,34.6541518 15.4674496,34.5361396 C15.9869007,34.4181275 16.5124129,34.7077858 16.69,35.21 L17.78,35.21 L18.42,26.77 L19.91,25.62 L21.4,26.78 L22.04,35.22 L23.13,35.22 C23.3075871,34.7177858 23.8330993,34.4281275 24.3525504,34.5461396 C24.8720015,34.6641518 25.2207758,35.1524359 25.1639383,35.6820828 C25.1071008,36.2117296 24.6626633,36.6148925 24.13,36.62 L24.07,36.61 Z M12.17,28.88 L14.46,23 L19.78,23 L12.17,28.88 Z M20,23 L25.32,23 L27.61,28.87 L20,23 Z M20.44,15.41 C21.16,14.95 22.3,16.06 22.3,16.06 C22.1387563,16.1983183 21.9883183,16.3487563 21.85,16.51 C21.5099001,16.8727651 21.3081403,17.3435379 21.28,17.84 C21.2567114,18.3472078 21.3969294,18.8484871 21.68,19.27 C22.1022093,19.9272937 22.8024148,20.3547875 23.58,20.43 C23.7918068,20.4410389 24.0040847,20.420822 24.21,20.37 C24.8182973,20.2113488 25.3087423,19.7620861 25.52,19.17 C25.7138946,18.5180993 25.6382484,17.8156699 25.31,17.22 C25.2245603,17.0513478 25.1241576,16.8907035 25.01,16.74 C24.9133874,16.6083823 24.8027358,16.4876714 24.68,16.38 C24.4821787,16.2074898 24.250594,16.0780748 24,16 C24.853153,15.7091543 25.7946771,15.8548664 26.52,16.39 C26.52,16.39 29.27,13.72 30.74,13.56 L25.53,22.12 L25.48,22.24 L14.21,22.24 L14.16,22.12 L8.95,13.56 C10.41,13.71 13.17,16.39 13.17,16.39 C13.8953229,15.8548664 14.836847,15.7091543 15.69,16 C15.4745551,16.0770775 15.274713,16.1922407 15.1,16.34 C14.9775886,16.4480025 14.8669706,16.5686767 14.77,16.7 C14.6565581,16.8511955 14.5561956,17.0117755 14.47,17.18 C14.1406567,17.7753241 14.0649619,18.4782041 14.26,19.13 C14.4712577,19.7220861 14.9617027,20.1713488 15.57,20.33 C15.7758659,20.3811122 15.988187,20.4013332 16.2,20.39 C16.9775852,20.3147875 17.6777907,19.8872937 18.1,19.23 C18.3843823,18.809093 18.5247243,18.3073704 18.5,17.8 C18.4718597,17.3035379 18.2700999,16.8327651 17.93,16.47 C17.7908819,16.3094992 17.6405008,16.1591181 17.48,16.02 C17.48,16.02 18.62,14.92 19.34,15.37 C18.818395,13.7826283 19.0079675,12.0473104 19.86,10.61 C20.7120325,12.0473104 20.901605,13.7826283 20.38,15.37 L20.44,15.41 Z" id="Shape"></path>
                        </g>
                    </g>
                </g>
            </g>
        </g>
    </g>
</svg>
