<?xml version="1.0" standalone="no"?>
<svg viewBox="0 -400 450 500" xmlns="http://www.w3.org/2000/svg">
  <path fill-rule="evenodd"
    d="m0,0  225,75  150,-50  0,-40  75,-25  0,-100  -60,-20  60,-20  0,-100  -75,-25  -75,25  0,100  60,20  -60,20  0,-10  -75,-25  -75,25  0,-50  -75,-25  -75,25 z
      m15,-198  60,20  60,-20 -60,-20 z
      m150,50  60,20  60,-20 -60,-20 z
      m150,-130  60,20  60,-20 -60,-20 z
      m0,140  60,20  60,-20 -55,-18 -5,2 -5,-2 -55,18 z
      m-20,75  0,-40  60,20 z
      m-200,-25  60,20  0,-40 z"/>
  <path fill-rule="evenodd"
    d="m210,-145 15,5, 15,-5 0,-150 75,-25, 0,-80 -15,-5 -15,5 -75,25 z
      m18,-225 80,-27 -10,-3 -80,27"/>
</svg>