<svg fill="#000000" xmlns="http://www.w3.org/2000/svg"  viewBox="0 0 50 50"><path d="M40,3H10C6.69,3,4,5.69,4,9v32.24l21,6.3l21-6.3V9C46,5.69,43.31,3,40,3z M28,8h3v23h-3V8z M17,8h6c1.66,0,3,1.34,3,3v7c0,1.66-1.34,3-3,3h-3v10h-3V8z M8,11c0-1.66,1.34-3,3-3h4v3h-4v7h3v3h-3v7h4v3h-4c-1.66,0-3-1.34-3-3V11z M14,36h-1v-0.75c0-0.14-0.11-0.25-0.25-0.25h-3.5C9.11,35,9,35.11,9,35.25v3.5C9,38.89,9.11,39,9.25,39h3.5c0.14,0,0.25-0.11,0.25-0.25V38h-1v-1h2v2c0,0.55-0.45,1-1,1H9c-0.55,0-1-0.45-1-1v-4c0-0.55,0.45-1,1-1h4c0.55,0,1,0.45,1,1V36z M21,40l-0.5-1h-4L16,40h-1l3-6h1l3,6H21z M29,40h-1v-4l-1.5,3h-1L24,36v4h-1v-6h1l2,4l2-4h1V40z M35,35h-4v1.5h2v1h-2V39h4v1h-5v-6h5V35z M42,35.5h-1v-0.25c0-0.14-0.11-0.25-0.25-0.25h-3.5C37.11,35,37,35.11,37,35.25v1c0,0.14,0.11,0.25,0.25,0.25H41c0.55,0,1,0.45,1,1V39c0,0.55-0.45,1-1,1h-4c-0.55,0-1-0.45-1-1v-0.5h1v0.25c0,0.14,0.11,0.25,0.25,0.25h3.5c0.14,0,0.25-0.11,0.25-0.25v-1c0-0.14-0.11-0.25-0.25-0.25H37c-0.55,0-1-0.45-1-1V35c0-0.55,0.45-1,1-1h4c0.55,0,1,0.45,1,1V35.5z M42,15h-3v-4h-3v17h3v-4h3v4c0,1.66-1.34,3-3,3h-3c-1.66,0-3-1.34-3-3V11c0-1.66,1.34-3,3-3h3c1.66,0,3,1.34,3,3V15z"/><path d="M20 38L17 38 18.5 35zM20 11H23V18H20z"/></svg>